<?xml version="1.0" encoding="UTF-8" standalone="no"?>
<!-- Created with Inkscape (http://www.inkscape.org/) -->

<svg
   xmlns:dc="http://purl.org/dc/elements/1.1/"
   xmlns:cc="http://creativecommons.org/ns#"
   xmlns:rdf="http://www.w3.org/1999/02/22-rdf-syntax-ns#"
   xmlns:svg="http://www.w3.org/2000/svg"
   xmlns="http://www.w3.org/2000/svg"
   xmlns:sodipodi="http://sodipodi.sourceforge.net/DTD/sodipodi-0.dtd"
   xmlns:inkscape="http://www.inkscape.org/namespaces/inkscape"
   width="42.386723mm"
   height="29.082874mm"
   viewBox="0 0 55.102749 37.807736"
   version="1.1"
   id="svg8"
   inkscape:version="0.92.2 (5c3e80d, 2017-08-06)"
   sodipodi:docname="logo.svg">
  <defs
     id="defs2" />
  <sodipodi:namedview
     id="base"
     pagecolor="#ffffff"
     bordercolor="#666666"
     borderopacity="1.0"
     inkscape:pageopacity="0.0"
     inkscape:pageshadow="2"
     inkscape:zoom="1.0823183"
     inkscape:cx="406.29106"
     inkscape:cy="-12.417251"
     inkscape:document-units="mm"
     inkscape:current-layer="layer1"
     showgrid="false"
     inkscape:window-width="2160"
     inkscape:window-height="1346"
     inkscape:window-x="-11"
     inkscape:window-y="-11"
     inkscape:window-maximized="1"
     scale-x="1.3"
     inkscape:snap-page="false"
     fit-margin-bottom="-2.7755576e-017"
     fit-margin-top="0"
     fit-margin-left="0"
     fit-margin-right="0" />
  <metadata
     id="metadata5">
    <rdf:RDF>
      <cc:Work
         rdf:about="">
        <dc:format>image/svg+xml</dc:format>
        <dc:type
           rdf:resource="http://purl.org/dc/dcmitype/StillImage" />
        <dc:title></dc:title>
      </cc:Work>
    </rdf:RDF>
  </metadata>
  <g
     inkscape:label="Layer 1"
     inkscape:groupmode="layer"
     id="layer1"
     transform="translate(-0.38701512,-0.4572596)">
    <g
       id="g56"
       transform="matrix(1.0002597,0,0,0.94499508,-13.994631,-42.942835)">
      <path
         sodipodi:nodetypes="cccccc"
         inkscape:connector-curvature="0"
         id="path3699"
         d="M 14.652344,67.174339 30.064486,47.036317 43.329945,57.429772 57.677913,46.134614 69.23702,67.775472 Z"
         style="fill:none;stroke:#000000;stroke-width:0.27337861px;stroke-linecap:butt;stroke-linejoin:miter;stroke-opacity:1" />
      <rect
         style="stroke-width:0.26458332"
         y="78.418091"
         x="15.333806"
         height="7.5165715"
         width="53.217331"
         id="rect3701" />
      <text
         transform="scale(0.78065656,1.280973)"
         id="text3705"
         y="60.601318"
         x="18.550524"
         style="font-style:normal;font-weight:normal;font-size:9.11222458px;line-height:1.25;font-family:sans-serif;letter-spacing:0px;word-spacing:0px;fill:#000000;fill-opacity:1;stroke:none;stroke-width:0.22780561"
         xml:space="preserve"><tspan
           style="stroke-width:0.22780561"
           y="60.601318"
           x="18.550524"
           id="tspan3703"
           sodipodi:role="line">Carlos Cuadros</tspan></text>
      <path
         transform="scale(0.26458333)"
         inkscape:connector-curvature="0"
         id="path28"
         d="M 58.222457,310.64189 V 296.81875 H 158.44022 258.65799 v 13.82314 13.82314 H 158.44022 58.222457 Z"
         style="fill:#000080;stroke-width:0.53165925" />
      <path
         inkscape:connector-curvature="0"
         d="m 24.843915,55.183812 c 0.01837,0.534453 0.05715,1.068911 0.145324,1.596572 0.06538,0.274939 0.162044,0.537433 0.300647,0.78335 0.08778,0.212595 0.240147,0.358838 0.405346,0.507574 0.188463,0.121758 0.341051,0.267544 0.443487,0.467886 0.0892,0.178014 0.194463,0.339807 0.33478,0.481095 0.193379,0.172593 0.345286,0.378237 0.502597,0.581683 0.137914,0.148397 0.301771,0.256805 0.476517,0.356735 0.197583,0.12056 0.379831,0.258631 0.603126,0.327615 0.24161,0.08338 0.432459,-0.01061 0.653518,-0.09562 0.112173,-0.08462 0.253016,-0.109077 0.37737,-0.165769 0.03938,-0.01797 0.149392,-0.08749 0.111792,-0.06605 -1.715159,0.977919 -2.20789,1.371753 -1.612509,0.903788 0.151411,-0.152117 0.243451,-0.344366 0.346967,-0.52926 0.143709,-0.177376 0.274772,-0.363265 0.391925,-0.559339 0.09907,-0.231603 0.162835,-0.480076 0.216254,-0.726197 0.01154,-0.252412 0.12627,-0.458107 0.241644,-0.673896 0.121843,-0.191998 0.251262,-0.379172 0.372213,-0.571585 0.09418,-0.207423 0.159348,-0.427868 0.234199,-0.643353 0.08423,-0.190542 0.191079,-0.371774 0.303239,-0.547264 0.436877,-0.692354 1.779913,-1.162082 2.158648,-1.403255 0.554355,-0.353002 -1.139275,0.655542 -1.708912,0.983316 0.986094,-0.662331 1.48722,-1.129882 2.479421,-1.187754 0.277463,-0.01109 0.555241,-0.0088 0.832863,-0.0081 0.275162,-0.01363 0.533302,0.01148 0.744638,0.198872 0.13955,0.194095 0.228656,0.422947 0.28819,0.6536 0.05905,0.20611 0.151095,0.398518 0.228547,0.597514 0.07511,0.245112 0.153318,0.49122 0.273426,0.718367 0.125449,0.18682 0.13241,0.442704 0.325101,0.575884 0.219218,0.102055 0.439071,0.03455 0.66444,-0.0016 0.309917,-0.09207 0.606491,-0.219673 0.900081,-0.353076 -3.088992,1.818426 -1.746507,1.084903 -1.122968,0.536541 0.257127,-0.212387 0.468333,-0.470922 0.671771,-0.733253 0.189979,-0.195954 0.265713,-0.44368 0.347856,-0.695654 0.09896,-0.223983 0.165587,-0.462684 0.26964,-0.684082 0.711038,-0.957017 1.723207,-1.780141 2.257451,-0.832663 0.128646,0.207106 0.25123,0.417108 0.380174,0.62397 0.141346,0.163002 0.263676,0.337719 0.393158,0.509463 0.09688,0.160888 0.24665,0.288639 0.418118,0.364628 0.24886,0.06557 0.49338,0.133162 0.749248,0.169116 0.306723,0.03712 0.615987,0.04131 0.924528,0.04397 0.307448,-0.0024 0.538845,-0.04776 0.776827,0.178485 0.161068,0.197882 0.292333,0.41896 0.377497,0.659683 0.05196,0.191514 0.07671,0.412734 0.267904,0.510421 0.236328,0.118129 0.476528,0.2315 0.719648,0.336037 0.238694,0.115295 0.492355,0.188005 0.739301,0.281636 0.253847,0.09475 0.523214,0.119808 0.791409,0.135165 0.04359,-0.0074 0.0882,-0.01027 0.130775,-0.0222 0.09108,-0.02553 0.180549,-0.05843 0.265698,-0.09961 0.0408,-0.01974 0.15432,-0.09505 0.114879,-0.07272 -1.633606,0.924875 -2.217909,1.315046 -1.558451,0.878851 5.201255,-3.002399 0.158231,-0.101529 0.24135,-0.145177 0.652597,-0.34272 1.275003,-0.740375 1.921253,-1.09492 0.56546,-0.310218 -1.118521,0.642517 -1.678839,0.961927 -0.01392,0.0079 0.08551,-0.05268 0.209007,-0.128058 0.179237,-0.116197 0.329161,-0.267338 0.489265,-0.406694 0.03231,-0.02103 0.06355,-0.04384 0.09695,-0.06311 0.633122,-0.365461 1.26396,-0.735026 1.902458,-1.091015 0.03765,-0.02098 0.08394,-0.0213 0.123457,-0.03852 0.03644,-0.0159 0.0676,-0.04202 0.102941,-0.06023 0.03526,-0.01818 0.142886,-0.06866 0.108561,-0.04877 -0.565737,0.327834 -1.135541,0.648599 -1.70331,0.972897 1.187309,-0.699207 3.824163,-2.182993 0.279582,-0.162436 -0.03054,0.01741 0.05921,-0.03792 0.0893,-0.05608 0.13421,-0.08101 0.03998,-0.01415 0.171956,-0.116578 0.165097,-0.159652 0.369877,-0.266829 0.548576,-0.409226 0.200724,-0.121078 0.336574,-0.304059 0.470501,-0.491109 0.15304,-0.150402 0.296812,-0.308948 0.445997,-0.464087 0.168265,-0.16506 0.285909,-0.335743 0.346107,-0.564004 0.03603,-0.234508 0.08497,-0.468432 0.172035,-0.68961 0.07752,-0.198509 0.162988,-0.395547 0.265051,-0.582803 0.08751,-0.184444 0.242626,-0.321511 0.343488,-0.496618 0.09643,-0.258519 0.210153,-0.511373 0.296685,-0.773506 0.223994,-0.823767 0.04199,-0.378505 1.978173,-1.007121 0.01916,-0.0062 0.124865,0.55925 0.133721,0.605605 0.08052,0.414901 0.08376,0.83784 0.154146,1.254 0.03681,0.294225 0.12292,0.577798 0.183139,0.86727 0.02331,0.255223 0.09624,0.499851 0.148556,0.749552 0.04701,0.208002 0.174691,0.3776 0.279064,0.558961 0.148754,0.214797 0.310806,0.419709 0.437118,0.648867 0.12764,0.26485 0.325332,0.484695 0.532143,0.69029 0.195112,0.165388 0.443055,0.184523 0.687523,0.199453 0.280521,0.03708 0.545742,-0.02577 0.819234,-0.074 0.288729,-0.08774 0.567005,-0.198443 0.822619,-0.359775 -3.178736,1.782339 -1.566035,0.976622 -0.928727,0.448196 0.185732,-0.192931 0.328998,-0.419547 0.503483,-0.622207 0.179224,-0.209325 0.308279,-0.453451 0.457023,-0.683737 0.142928,-0.210349 0.182798,-0.453813 0.205811,-0.701283 0.02146,-0.293629 0.128921,-0.568645 0.203005,-0.850792 0.05098,-0.260159 0.07886,-0.521681 0.140697,-0.779843 0.05971,-0.221927 0.06274,-0.451977 0.08658,-0.678815 0.141444,-1.025557 1.653442,-1.640168 2.066946,-0.790718 0.0556,0.114218 0.07051,0.180496 0.107738,0.302271 0.08137,0.321437 0.145852,0.648239 0.25436,0.961861 0.106897,0.288631 0.254961,0.560001 0.380826,0.840962 0.0917,0.235048 0.19586,0.470006 0.33221,0.682889 0.110959,0.178695 0.244116,0.348454 0.398738,0.491644 0.108395,0.08812 0.245094,0.07935 0.37215,0.11004 0.07591,0.01834 0.147833,0.05045 0.22243,0.07355 0.221337,0.04863 0.447497,0.107151 0.648824,0.21354 0.203753,0.08669 0.414766,0.13408 0.600155,0.260175 0.189566,0.10074 0.390265,0.16764 0.578,0.275013 0.22012,0.09022 0.422667,0.210685 0.654775,0.269293 0.143627,0.06717 0.0726,0.03629 0.212863,0.09317 0,0 -1.743094,1.165673 -1.743094,1.165673 v 0 c -0.135252,-0.05597 -0.06815,-0.03015 -0.201189,-0.07781 -0.233307,-0.08279 -0.452829,-0.1993 -0.677505,-0.30248 -0.195003,-0.09541 -0.401302,-0.166931 -0.585359,-0.283313 -0.18978,-0.09562 -0.396796,-0.145179 -0.586833,-0.240609 -0.207264,-0.07708 -0.417901,-0.138875 -0.632724,-0.190955 -0.226936,-0.06819 -0.470945,-0.09588 -0.650343,-0.267507 -0.15807,-0.162973 -0.305954,-0.338683 -0.421503,-0.534673 -0.13884,-0.223253 -0.254719,-0.463524 -0.34531,-0.710208 -0.126246,-0.286578 -0.275974,-0.563044 -0.384331,-0.856871 -0.116081,-0.314997 -0.186187,-0.644097 -0.262917,-0.970413 -0.0271,-0.09494 -0.04204,-0.16546 -0.08569,-0.253344 -0.04569,-0.092 -0.09477,-0.130299 -0.09193,-0.132048 1.687203,-1.039077 2.467887,-1.011991 1.73677,-1.030248 -0.113845,0.188259 -0.01135,0.465556 -0.09605,0.671097 -0.05818,0.2607 -0.121978,0.514771 -0.142518,0.782704 -0.06089,0.277617 -0.169526,0.539303 -0.2169,0.819743 -0.01497,0.271028 -0.0368,0.546285 -0.162544,0.792334 -0.14205,0.238776 -0.288163,0.476832 -0.447125,0.704821 -0.159472,0.22189 -0.360013,0.412112 -0.496625,0.65241 -0.710335,0.764397 -1.949223,0.890672 -2.6308,1.660448 -0.275421,0.136827 -0.564237,0.250076 -0.868074,0.305038 -0.283501,0.04823 -0.566693,0.06618 -0.853461,0.02892 -0.285901,-0.03858 -0.556109,-0.112376 -0.767387,-0.322196 -0.21336,-0.225351 -0.424731,-0.456877 -0.561155,-0.73891 -0.124706,-0.228293 -0.294582,-0.426058 -0.436917,-0.643416 -0.117046,-0.200644 -0.255458,-0.389549 -0.312288,-0.619112 -0.04756,-0.251219 -0.131344,-0.493927 -0.146595,-0.750803 -0.05546,-0.293161 -0.149886,-0.577048 -0.182345,-0.874604 -0.06997,-0.415848 -0.07619,-0.836684 -0.147794,-1.25246 -0.02987,-0.15779 -0.121989,-0.545233 -0.115366,-0.549638 0.582586,-0.387715 1.213387,-0.697582 1.818381,-1.049308 0.0168,-0.0098 -0.04246,0.0072 -0.05347,0.02323 -0.01947,0.02835 -0.02019,0.06576 -0.03027,0.09863 -0.07032,0.27563 -0.20111,0.524137 -0.282604,0.795922 -0.06662,0.205846 -0.190011,0.356053 -0.336635,0.510874 -0.09462,0.186899 -0.202906,0.367641 -0.273748,0.564792 -0.0892,0.209842 -0.173527,0.424678 -0.190471,0.655246 -0.0385,0.248166 -0.09667,0.492713 -0.302689,0.657355 -0.06716,0.0928 -0.151328,0.156006 -0.222057,0.243409 -0.06922,0.08554 -0.110297,0.178887 -0.223189,0.220239 -0.164251,0.169249 -0.251775,0.402984 -0.450652,0.538816 -0.188584,0.125902 -0.356504,0.279733 -0.557585,0.388284 -0.534067,0.567912 -1.793909,1.10567 -2.132232,1.29763 -0.537591,0.305023 2.386634,-1.391957 1.605005,-0.928634 -0.630397,0.364056 -1.259555,0.730266 -1.891192,1.092165 -0.09436,0.05407 -0.119041,0.0534 -0.21854,0.09861 -0.03761,0.01709 -0.146656,0.07597 -0.111022,0.05507 2.285238,-1.340144 2.210059,-1.295485 1.589527,-0.920358 -0.198242,0.09249 -0.31218,0.280307 -0.495785,0.395573 -0.130222,0.116308 -0.04987,0.05634 -0.20407,0.145441 -0.636,0.367514 -1.271024,0.736711 -1.907334,1.103688 -0.555929,0.320622 2.224797,-1.280564 1.666198,-0.964617 -0.705268,0.398901 -4.09544,2.374 -0.245396,0.133913 -0.788614,0.518917 -1.617017,1.279536 -2.60623,1.294821 -0.280982,-0.02791 -0.5588,-0.07619 -0.823246,-0.179316 -0.256032,-0.08283 -0.499068,-0.191831 -0.746686,-0.296553 -0.251727,-0.114822 -0.510675,-0.219485 -0.745953,-0.366009 -0.197276,-0.162198 -0.29083,-0.376701 -0.334372,-0.626896 -0.06543,-0.205407 -0.176086,-0.397753 -0.320485,-0.557768 -0.201729,-0.123986 -0.469492,-0.03716 -0.693375,-0.06478 -0.314518,-0.0071 -0.629814,-0.01894 -0.940895,-0.0696 -0.269772,-0.04939 -0.542658,-0.112262 -0.794097,-0.223252 -0.183883,-0.114081 -0.354994,-0.254754 -0.466979,-0.442955 -0.129315,-0.17852 -0.263935,-0.350777 -0.399478,-0.524994 -0.12998,-0.209275 -0.254109,-0.421553 -0.385705,-0.629844 -0.02074,-0.03561 -0.05117,-0.101859 -0.09171,-0.12592 -0.01307,-0.0078 -0.06854,0.04865 -0.05785,0.04244 1.895391,-1.10196 2.309723,-1.301588 1.631646,-0.970272 -0.173223,0.16946 -0.15844,0.432377 -0.299029,0.628425 -0.07839,0.267282 -0.138666,0.548892 -0.316434,0.770977 -0.221544,0.252215 -0.400418,0.545309 -0.659884,0.763823 -0.116721,0.10382 -0.224848,0.215959 -0.339492,0.320437 -0.602914,0.549468 -2.051159,0.01339 -2.114167,1.231895 -0.299775,0.132641 -0.613343,0.249502 -0.936585,0.306959 -0.27296,0.03358 -0.538247,0.03176 -0.767924,-0.142687 -0.188526,-0.183015 -0.24765,-0.416206 -0.362773,-0.645856 -0.123184,-0.234222 -0.215199,-0.484942 -0.288488,-0.738992 -0.07757,-0.208436 -0.176639,-0.4074 -0.240591,-0.621347 -0.04115,-0.185177 -0.106876,-0.375727 -0.217982,-0.529741 -0.19907,-0.117637 -0.441997,-0.08312 -0.663814,-0.08801 -0.274153,2.65e-4 -0.549023,-0.0013 -0.822213,0.0249 -0.804355,0.106559 -1.972895,1.030439 1.158883,-0.820364 -0.62679,0.364374 -1.242939,0.747705 -1.88037,1.093121 -0.57758,0.312983 1.133668,-0.664089 1.700717,-0.995768 0.02829,-0.01654 -0.05841,0.03044 -0.08443,0.05036 -0.02663,0.0204 -0.04832,0.04651 -0.07248,0.06977 -0.0279,0.01521 -0.05823,0.02663 -0.08369,0.04565 -0.02529,0.01889 -0.04466,0.04459 -0.06699,0.06688 -0.09939,0.179326 -0.217059,0.345993 -0.313862,0.525176 -0.114702,0.200668 -0.155803,0.439211 -0.229288,0.65673 -0.09546,0.21277 -0.248812,0.386925 -0.36218,0.590344 -0.111932,0.132969 -0.02021,0.01072 -0.109374,0.175437 -0.07748,0.14314 -0.185867,0.243457 -0.171003,0.424445 -0.04502,0.263866 -0.124153,0.517485 -0.189642,0.776248 -0.08825,0.213434 -0.223444,0.417774 -0.377542,0.588015 -0.147074,0.16401 -0.191527,0.385501 -0.340503,0.548143 -0.48877,0.804328 -1.610381,1.058018 -2.460241,1.433197 -0.251021,0.07951 -0.492086,0.07737 -0.739614,-0.0222 -0.221927,-0.09681 -0.418329,-0.236982 -0.626479,-0.359598 -0.188947,-0.122304 -0.37278,-0.247129 -0.516371,-0.424072 -0.148902,-0.19958 -0.30324,-0.392625 -0.490021,-0.559564 -0.151515,-0.1592 -0.268675,-0.339995 -0.367968,-0.535861 -0.08651,-0.177048 -0.252778,-0.278741 -0.402868,-0.399801 -0.183242,-0.161356 -0.334438,-0.344329 -0.43876,-0.56769 -0.15215,-0.267557 -0.253667,-0.554141 -0.325948,-0.853432 -0.08732,-0.538441 -0.117309,-1.081514 -0.165132,-1.624629 0,0 1.860652,-0.94805 1.860652,-0.94805 z"
         id="path44"
         style="fill:#000080;stroke-width:0.26458332" />
    </g>
  </g>
</svg>
